g c_face_07_u_01
v 1.185027E-14 0.617762 0.1089243
v 0.02405197 0.6140968 0.0906601
v 0.03831467 0.6051541 0.08784872
v 1.175406E-14 0.6265167 0.09920523
v 0.02168602 0.6253281 0.08726198
v 1.172378E-14 0.6374016 0.09606208
v 0.07348617 0.6131651 0.07285467
v 0.07348549 0.6209774 0.06932525
v 0.0833599 0.6286689 0.05765352
v 0.08764427 0.6888567 0.07100014
v 0.0211348 0.6906208 0.09336918
v 1.172732E-14 0.6509187 0.0962764
v 0.08581367 0.7095082 0.07696294
v 0.05580894 0.7120119 0.08749019
v 1.182651E-14 0.711595 0.1055785
v 1.179134E-14 0.6883001 0.1022991
v 0.07708748 0.5999259 0.04252854
v 0.06896393 0.5996813 0.07220253
v -0.02168602 0.6253281 0.08726198
v -0.0211348 0.6906208 0.09336918
v -0.05580894 0.7120119 0.08749019
v -0.08581367 0.7095082 0.07696294
v -0.08764427 0.6888567 0.07100014
v -0.07348549 0.6209774 0.06932525
v -0.07348617 0.6131651 0.07285467
v -0.0833599 0.6286689 0.05765352
v -0.02405197 0.6140968 0.0906601
v -0.03831467 0.6051541 0.08784872
v -0.07708748 0.5999259 0.04252854
v -0.06896393 0.5996813 0.07220253
vt 0.2504924 0.7820275
vt 0.3011485 0.7743174
vt 0.3311662 0.7555072
vt 0.2504879 0.8004421
vt 0.296169 0.7979418
vt 0.2504924 0.8233379
vt 0.4051892 0.7723576
vt 0.4051877 0.7887903
vt 0.4371406 0.7914391
vt 0.4349868 0.9315727
vt 0.2950089 0.9352822
vt 0.2504879 0.8517706
vt 0.431134 0.9750122
vt 0.3679852 0.9802786
vt 0.2504924 0.9794005
vt 0.2504924 0.930401
vt 0.4445446 0.7476727
vt 0.3953388 0.7564569
vt 0.2048336 0.7979418
vt 0.2059937 0.9352822
vt 0.1330174 0.9802786
vt 0.06986862 0.9750122
vt 0.06601584 0.9315727
vt 0.09581488 0.7887903
vt 0.09581339 0.7723576
vt 0.06386197 0.7914391
vt 0.1998541 0.7743174
vt 0.1698364 0.7555072
vt 0.056458 0.7476727
vt 0.1056638 0.7564569
vn 0 0.74571 0.6662707
vn 0.4260617 0.4539019 0.7825884
vn 0.3685582 0.2278144 0.9012577
vn 0 0.5414343 0.8407431
vn 0.3329194 -0.01400584 0.9428512
vn 1.470475E-07 0.08221703 0.9966145
vn 0.735633 -0.07738455 0.6729455
vn 0.3923501 -0.05085622 0.918409
vn 0.8507321 -0.2279646 0.4735895
vn 0.325394 -0.1385808 0.9353684
vn 0.3206103 -0.1385198 0.9370279
vn -2.434151E-07 -0.09457826 0.9955174
vn 0.3037673 -0.23914 0.9222459
vn 0.3034953 -0.2386138 0.9224717
vn 0 -0.2136083 0.9769194
vn 0 -0.1517814 0.9884141
vn 0.9106164 -0.3280304 0.2513438
vn 0.7019063 -0.2673362 0.6601962
vn -0.3329192 -0.01400594 0.9428514
vn -0.3206103 -0.1385198 0.9370279
vn -0.3034952 -0.2386138 0.9224718
vn -0.3037673 -0.23914 0.9222459
vn -0.325394 -0.1385808 0.9353684
vn -0.39235 -0.05085621 0.918409
vn -0.735633 -0.0773844 0.6729455
vn -0.850732 -0.2279646 0.4735897
vn -0.4260611 0.4539014 0.782589
vn -0.368558 0.2278146 0.9012577
vn -0.9106166 -0.3280302 0.2513435
vn -0.7019058 -0.267336 0.6601967
g c_face_07_u_01_0
f 3/3/3 2/2/2 1/1/1
f 2/2/2 4/4/4 1/1/1
f 2/2/2 5/5/5 4/4/4
f 6/6/6 4/4/4 5/5/5
f 2/2/2 3/3/3 7/7/7
f 2/2/2 7/7/7 5/5/5
f 7/7/7 8/8/8 5/5/5
f 8/8/8 7/7/7 9/9/9
f 8/8/8 9/9/9 10/10/10
f 8/8/8 10/10/10 11/11/11
f 5/5/5 8/8/8 11/11/11
f 12/12/12 5/5/5 11/11/11
f 12/12/12 6/6/6 5/5/5
f 10/10/10 13/13/13 11/11/11
f 13/13/13 14/14/14 11/11/11
f 15/15/15 11/11/11 14/14/14
f 16/16/16 11/11/11 15/15/15
f 16/16/16 12/12/12 11/11/11
f 17/17/17 9/9/9 7/7/7
f 7/7/7 18/18/18 17/17/17
f 3/3/3 18/18/18 7/7/7
f 4/4/4 6/6/6 19/19/19
f 6/6/6 12/12/12 19/19/19
f 19/19/19 12/12/12 20/20/20
f 20/20/20 16/16/16 15/15/15
f 12/12/12 16/16/16 20/20/20
f 20/20/20 15/15/15 21/21/21
f 21/21/21 22/22/22 20/20/20
f 22/22/22 23/23/23 20/20/20
f 23/23/23 24/24/24 20/20/20
f 24/24/24 19/19/19 20/20/20
f 24/24/24 25/25/25 19/19/19
f 25/25/25 24/24/24 26/26/26
f 26/26/26 24/24/24 23/23/23
f 25/25/25 27/27/27 19/19/19
f 19/19/19 27/27/27 4/4/4
f 4/4/4 27/27/27 1/1/1
f 27/27/27 28/28/28 1/1/1
f 28/28/28 27/27/27 25/25/25
f 26/26/26 29/29/29 25/25/25
f 30/30/30 25/25/25 29/29/29
f 30/30/30 28/28/28 25/25/25
