g c_mouth_07_u_01
v 1.167428E-14 0.5818483 0.09168078
v 1.179624E-14 0.605908 0.1036385
v 0.03801018 0.5836505 0.07829252
v 0.003758645 0.5580779 0.07260887
v 1.149005E-14 0.5573941 0.07349446
v -0.03801018 0.5836505 0.07829252
v -0.003758645 0.5580779 0.07260887
v 0.03831467 0.6051541 0.08784872
v 1.185027E-14 0.617762 0.1089243
v -0.03831467 0.6051541 0.08784873
vt 0.1105878 0.07998031
vt 0.1105878 0.1406307
vt 0.1917655 0.08452415
vt 0.118615 0.02006012
vt 0.1105878 0.01833647
vt 0.02940989 0.08452415
vt 0.1025605 0.02006012
vt 0.1924159 0.1387305
vt 0.1105878 0.1705129
vt 0.02875966 0.1387305
vn 0 -0.516338 0.8563849
vn 1.473766E-07 -0.4237373 0.9057851
vn 0.3221565 -0.4648267 0.8247129
vn 0.2957822 -0.568916 0.7673639
vn 0 -0.5967554 0.8024232
vn -0.3221564 -0.4648266 0.8247131
vn -0.295782 -0.5689156 0.7673643
vn 0.3451701 -0.3849725 0.8559519
vn 3.87544E-07 -0.4072472 0.913318
vn -0.3451701 -0.3849729 0.8559518
g c_mouth_07_u_01_0
f 3/3/3 2/2/2 1/1/1
f 4/4/4 3/3/3 1/1/1
f 5/5/5 4/4/4 1/1/1
f 2/2/2 6/6/6 1/1/1
f 7/7/7 5/5/5 1/1/1
f 6/6/6 7/7/7 1/1/1
f 3/3/3 8/8/8 2/2/2
f 9/9/9 2/2/2 8/8/8
f 2/2/2 9/9/9 10/10/10
f 2/2/2 10/10/10 6/6/6
